<?xml version="1.0" encoding="UTF-8" standalone="no"?>
<!-- Created with Inkscape (http://www.inkscape.org/) -->

<svg
   xmlns:dc="http://purl.org/dc/elements/1.1/"
   xmlns:cc="http://creativecommons.org/ns#"
   xmlns:rdf="http://www.w3.org/1999/02/22-rdf-syntax-ns#"
   xmlns:svg="http://www.w3.org/2000/svg"
   xmlns="http://www.w3.org/2000/svg"
   xmlns:sodipodi="http://sodipodi.sourceforge.net/DTD/sodipodi-0.dtd"
   xmlns:inkscape="http://www.inkscape.org/namespaces/inkscape"
   width="140pt"
   height="140pt"
   viewBox="0 0 175 174.99999"
   id="svg12489"
   version="1.1"
   inkscape:version="0.91 r13725"
   sodipodi:docname="logo_color_norot.svg"
   style="enable-background:new">
  <defs
     id="defs12491" />
  <sodipodi:namedview
     id="base"
     pagecolor="#ffffff"
     bordercolor="#666666"
     borderopacity="1.0"
     inkscape:pageopacity="0.0"
     inkscape:pageshadow="2"
     inkscape:zoom="2.8284271"
     inkscape:cx="47.413944"
     inkscape:cy="119.95737"
     inkscape:document-units="pt"
     inkscape:current-layer="layer4"
     showgrid="true"
     inkscape:window-width="1920"
     inkscape:window-height="1017"
     inkscape:window-x="1912"
     inkscape:window-y="32"
     inkscape:window-maximized="1"
     showguides="true"
     fit-margin-top="0"
     fit-margin-left="0"
     fit-margin-right="0"
     fit-margin-bottom="0"
     units="pt">
    <inkscape:grid
       type="xygrid"
       id="grid22349"
       originx="0"
       originy="0"
       units="pt"
       spacingx="1.25"
       spacingy="1.2499999" />
  </sodipodi:namedview>
  <metadata
     id="metadata12494">
    <rdf:RDF>
      <cc:Work
         rdf:about="">
        <dc:format>image/svg+xml</dc:format>
        <dc:type
           rdf:resource="http://purl.org/dc/dcmitype/StillImage" />
        <dc:title></dc:title>
      </cc:Work>
    </rdf:RDF>
  </metadata>
  <g
     inkscape:groupmode="layer"
     id="layer4"
     inkscape:label="Ebene 2"
     transform="translate(-31.135209,-847.65212)">
    <path
       style="fill:#9e2b25;fill-rule:evenodd;stroke:none;stroke-width:0;stroke-linecap:butt;stroke-linejoin:miter;stroke-opacity:1;stroke-miterlimit:4;stroke-dasharray:none;fill-opacity:1"
       d="M 3.75 3.75 L 3.75 87.5 L 171.25 87.5 L 171.25 3.75 L 3.75 3.75 z M 151.08008 23.740234 C 154.44511 23.574331 156.86268 24.872711 158.58594 26.646484 C 161.86843 30.025024 162.63086 35.130859 162.63086 35.130859 L 154.66211 35.144531 C 154.66296 35.146531 154.67188 35.197266 154.67188 35.197266 L 154.61914 35.144531 L 154.66211 35.144531 C 154.64341 34.971391 153.99642 29.280197 149.69531 32.185547 C 146.58204 35.396567 150.55859 38.386719 150.55859 38.386719 L 152.65039 40.066406 C 152.65039 40.066406 149.52036 46.920756 149.10352 46.503906 C 148.67289 46.073286 145.37163 45.006278 142.67188 41.861328 C 139.22153 38.968878 138.47696 25.739527 149.57812 23.904297 C 150.09824 23.817922 150.59936 23.763935 151.08008 23.740234 z M 25.761719 25.316406 C 34.487233 25.066538 41.042576 31.208864 41.046875 31.212891 L 35.970703 36.400391 C 29.466235 31.447611 24.842605 31.334191 18.773438 35.863281 C 12.69791 40.396601 12.24409 52.410009 21.066406 57.261719 C 29.25757 60.179219 34.410156 55.257812 34.410156 55.257812 L 44.888672 55.25 C 39.3626 66.61606 28.658011 66.955735 19.935547 65.203125 C 11.198203 63.459005 -1.2991988 43.381721 12.925781 30.800781 C 17.377384 26.866247 21.794275 25.43002 25.761719 25.316406 z M 112.34375 25.822266 L 132.04492 65.193359 L 124.24414 65.195312 L 119.95117 58.669922 L 109.12891 58.691406 L 112.79492 51.4375 L 116.69336 51.279297 L 108.20117 32.429688 L 112.34375 25.822266 z M 65.857422 25.910156 L 65.808594 65.375 L 57.861328 65.388672 L 57.900391 25.927734 L 65.857422 25.910156 z M 104.84766 40.232422 L 108.74609 47.791016 L 99.490234 65.460938 L 91.214844 65.476562 L 104.84766 40.232422 z M 47.378906 42 L 47.376953 49.347656 L 27.78125 49.361328 L 27.78125 42.017578 L 47.378906 42 z M 159.41602 42.990234 C 159.41602 42.990234 161.76969 44.371902 163.81055 46.263672 C 164.1167 46.547422 164.41616 46.840601 164.69922 47.144531 L 164.69922 47.146484 C 165.54811 48.058494 166.25134 49.048566 166.56836 50.035156 C 167.69556 53.555776 170.02963 62.514689 158.46094 66.824219 C 146.87951 71.131649 142.25586 55.410156 142.25586 55.410156 L 150.11523 55.417969 C 150.11523 55.417969 149.81964 57.165731 151.30078 58.457031 C 152.51459 59.538641 155.88782 61.217334 159.02148 58.589844 C 161.90115 54.004034 156.17383 49.800781 156.17383 49.800781 L 156.17969 49.794922 L 159.41602 42.990234 z M 80.697266 57.810547 L 80.693359 65.283203 L 70.025391 65.300781 L 70.035156 57.816406 L 80.697266 57.810547 z "
       transform="translate(31.135209,847.65211)"
       id="path4404" />
    <path
       style="fill:none;fill-opacity:1;fill-rule:evenodd;stroke:#4f4f70;stroke-width:3.75;stroke-linecap:butt;stroke-linejoin:miter;stroke-miterlimit:4;stroke-dasharray:none;stroke-opacity:1;"
       d="m 33.010209,1020.7771 0,-171.24999 171.250001,0 0,171.24999 z"
       id="path4289"
       inkscape:connector-curvature="0"
       sodipodi:nodetypes="ccccc" />
    <path
       inkscape:connector-curvature="0"
       id="path14243"
       style="display:inline;opacity:1;fill:#4f4f70;fill-opacity:1;fill-rule:nonzero;stroke:none;enable-background:new"
       d="m 45.520475,996.26612 -8.024952,0 0,-39.8999 8.024952,0 0,39.8999 z" />
    <path
       inkscape:connector-curvature="0"
       id="path14247"
       style="display:inline;opacity:1;fill:#4f4f70;fill-opacity:1;fill-rule:nonzero;stroke:none;enable-background:new"
       d="m 74.022431,996.22676 -8.01648,-0.012 -0.0072,-39.90939 8.014344,0.005 0.0096,39.91368 z" />
    <path
       inkscape:connector-curvature="0"
       id="path14251"
       style="display:inline;opacity:1;fill:#4f4f70;fill-opacity:1;fill-rule:nonzero;stroke:none;enable-background:new"
       d="m 60.870023,978.77408 -10.342488,0.001 0.0108,-8.1078 10.33188,0 0,8.10132 z" />
    <path
       sodipodi:nodetypes="ccccccc"
       inkscape:connector-curvature="0"
       id="path14263"
       style="display:inline;opacity:1;fill:#4f4f70;fill-opacity:1;fill-rule:nonzero;stroke:none;enable-background:new"
       d="m 128.42304,955.79926 7.53599,0.012 c 0,0 -0.0922,25.3642 -0.0799,26.7796 -0.0122,5.7846 4.79906,6.96576 4.79906,6.96576 l 6.9e-4,7.2156 c 0,0 -12.01194,0 -12.12637,-12.65508 0.11448,-28.1417 -0.1294,-28.31754 -0.1294,-28.31754" />
    <path
       sodipodi:nodetypes="ccccccc"
       inkscape:connector-curvature="0"
       id="path14267"
       style="display:inline;opacity:1;fill:#4f4f70;fill-opacity:1;fill-rule:nonzero;stroke:none;enable-background:new"
       d="m 156.56439,956.00062 -7.50597,-0.0415 c 0,0 0.008,1.21598 0.085,26.96934 -0.37662,6.72156 -3.73979,6.67704 -3.73979,6.67704 l 0.038,7.12836 c 0,0 11.07058,0.0348 11.17283,-13.0758 -0.10212,-21.57687 -0.019,-27.67612 -0.019,-27.67612" />
    <path
       sodipodi:nodetypes="ccccccccc"
       inkscape:connector-curvature="0"
       id="path14271"
       style="display:inline;opacity:1;fill:#4f4f70;fill-opacity:1;fill-rule:nonzero;stroke:none;enable-background:new"
       d="m 188.14284,967.06595 8.00059,-9.6e-4 c 0,0 -1.96647,-13.061 -13.05354,-11.2356 -11.09345,1.82327 -9.97656,14.20236 -6.84126,17.85936 4.17078,3.64908 5.91181,3.60684 6.33608,4.03104 0.41179,0.42204 3.89591,-6.57012 3.89591,-6.57012 l -2.49616,-1.434 c 0,0 -4.76508,-3.17784 -1.01023,-6.13184 4.64514,-1.84601 5.16861,3.48212 5.16861,3.48212" />
    <path
       sodipodi:nodetypes="cccccccc"
       inkscape:connector-curvature="0"
       id="path14275"
       style="display:inline;opacity:1;fill:#4f4f70;fill-opacity:1;fill-rule:nonzero;stroke:none;enable-background:new"
       d="m 186.86982,979.45355 3.79732,-6.49656 c 0,0 5.76147,2.955 6.8794,6.453 1.1243,3.50868 3.48113,12.4734 -8.08435,16.76484 -11.55907,4.29147 -16.19836,-11.42748 -16.19836,-11.42748 l 8.14587,0 c 1.40973,3.38628 3.80972,5.78628 7.71308,3.0822 3.64889,-3.50628 -2.02793,-8.1552 -2.02793,-8.1552" />
    <path
       inkscape:connector-curvature="0"
       id="path14223-4"
       style="display:inline;opacity:1;fill:#4f4f70;fill-opacity:1;fill-rule:nonzero;stroke:none;enable-background:new"
       d="m 78.744711,996.08401 8.267833,-0.012 9.2277,-17.64312 -3.902136,-7.55496 -13.593457,25.20516 z" />
    <path
       sodipodi:nodetypes="cccccccccc"
       inkscape:connector-curvature="0"
       id="path14227-8"
       style="display:inline;opacity:1;fill:#4f4f70;fill-opacity:1;fill-rule:nonzero;stroke:none;enable-background:new"
       d="m 99.812356,956.48997 -4.131264,6.59836 8.502268,18.99852 -3.89471,0 -3.655082,7.24224 10.812372,-0.012 4.29251,6.522 7.79477,-1.2e-4 -19.720852,-39.35149 z" />
  </g>
</svg>
