<?xml version="1.0" encoding="UTF-8" standalone="no"?>
<!-- Created with Inkscape (http://www.inkscape.org/) -->

<svg
   xmlns:dc="http://purl.org/dc/elements/1.1/"
   xmlns:cc="http://creativecommons.org/ns#"
   xmlns:rdf="http://www.w3.org/1999/02/22-rdf-syntax-ns#"
   xmlns:svg="http://www.w3.org/2000/svg"
   xmlns="http://www.w3.org/2000/svg"
   xmlns:sodipodi="http://sodipodi.sourceforge.net/DTD/sodipodi-0.dtd"
   xmlns:inkscape="http://www.inkscape.org/namespaces/inkscape"
   width="58.766712mm"
   height="58.762856mm"
   viewBox="0 0 208.22851 208.21484"
   id="svg12489"
   version="1.1"
   inkscape:version="0.91 r13725"
   sodipodi:docname="logo_white.svg"
   style="enable-background:new">
  <defs
     id="defs12491" />
  <sodipodi:namedview
     id="base"
     pagecolor="#ffffff"
     bordercolor="#666666"
     borderopacity="1.0"
     inkscape:pageopacity="0.0"
     inkscape:pageshadow="2"
     inkscape:zoom="2.8284271"
     inkscape:cx="161.61276"
     inkscape:cy="79.396777"
     inkscape:document-units="px"
     inkscape:current-layer="layer4"
     showgrid="true"
     inkscape:window-width="1920"
     inkscape:window-height="1017"
     inkscape:window-x="1912"
     inkscape:window-y="32"
     inkscape:window-maximized="1"
     showguides="false"
     fit-margin-top="0"
     fit-margin-left="0"
     fit-margin-right="0"
     fit-margin-bottom="0">
    <inkscape:grid
       type="xygrid"
       id="grid22349"
       originx="-2.0000001e-005"
       originy="-1.4724409e-005" />
  </sodipodi:namedview>
  <metadata
     id="metadata12494">
    <rdf:RDF>
      <cc:Work
         rdf:about="">
        <dc:format>image/svg+xml</dc:format>
        <dc:type
           rdf:resource="http://purl.org/dc/dcmitype/StillImage" />
        <dc:title></dc:title>
      </cc:Work>
    </rdf:RDF>
  </metadata>
  <g
     inkscape:groupmode="layer"
     id="layer4"
     inkscape:label="Ebene 2"
     transform="translate(-2e-5,-844.14735)">
    <g
       id="g22369"
       transform="matrix(0.70710678,-0.70710678,0.70710678,0.70710678,-640.02316,351.35778)">
      <g
         id="g14189"
         style="display:inline;opacity:1"
         transform="matrix(0.88388348,0.88388348,0.88388348,-0.88388348,-1639.5933,271.21648)">
        <g
           clip-path="none"
           transform="translate(1370.2666,520.1143)"
           id="g14197">
          <path
             inkscape:connector-curvature="0"
             id="path14199"
             transform="matrix(0.8,0,0,-0.8,-388.86004,354.66978)"
             d="M 483.86328,235.12305 380.85352,338.32422 486.07422,443.33789 589.08203,340.13672 483.86328,235.12305 Z m 0.0684,4.79101 100.22266,100.03125 -98.37696,98.5586 -100.21093,-100.03711 98.36523,-98.55274 z"
             style="fill:#ffffff;fill-opacity:1;fill-rule:nonzero;stroke:none" />
        </g>
        <g
           transform="translate(1370.0283,523.9812)"
           id="g14201" />
        <g
           mask="none"
           style="fill:#000000;fill-opacity:0.475"
           transform="translate(1330.0558,563.9684)"
           id="g14205">
          <path
             inkscape:connector-curvature="0"
             id="path14207"
             style="fill:#ffffff;fill-opacity:0.45;fill-rule:nonzero;stroke:none"
             d="M 0,0 78.768,78.913 38.633,118.964 -40.127,40.051 0,0 Z" />
        </g>
        <g
           transform="translate(1334.3455,604.4494)"
           id="g14209">
          <path
             inkscape:connector-curvature="0"
             id="path14211"
             style="fill:#ffffff;fill-opacity:1;fill-rule:nonzero;stroke:none"
             d="M 0,0 -9.231,-9.225 -12.694,-5.77 -3.463,3.458 0,0 Z" />
        </g>
        <g
           transform="translate(1347.592,602.7882)"
           id="g14213">
          <path
             inkscape:connector-curvature="0"
             id="path14215"
             style="fill:#ffffff;fill-opacity:1;fill-rule:nonzero;stroke:none"
             d="M 0,0 3.741,3.746 -14.84,22.335 -18.582,18.584 0,0 Z" />
        </g>
        <g
           transform="translate(1358.3058,613.5792)"
           id="g14217">
          <path
             inkscape:connector-curvature="0"
             id="path14219"
             style="fill:#ffffff;fill-opacity:1;fill-rule:nonzero;stroke:none"
             d="m 0,0 -5.019,-5.027 -3.524,3.525 5.024,5.02 L 0,0 Z" />
        </g>
        <g
           transform="translate(1361.5319,616.8696)"
           id="g14221">
          <path
             inkscape:connector-curvature="0"
             id="path14223"
             style="fill:#ffffff;fill-opacity:1;fill-rule:nonzero;stroke:none"
             d="M 0,0 3.894,3.901 -0.073,16.568 -5.474,18.29 0,0 Z" />
        </g>
        <g
           transform="translate(1352.7985,645.4658)"
           id="g14225">
          <path
             inkscape:connector-curvature="0"
             id="path14227"
             style="fill:#ffffff;fill-opacity:1;fill-rule:nonzero;stroke:none"
             d="m 0,0 1.163,-5.058 12.889,-4.873 -1.763,-1.909 1.691,-5.137 5.092,5.102 5.098,-1.051 3.677,3.672 L 0,0 Z" />
        </g>
        <g
           transform="translate(1322.8665,605.1748)"
           id="g14229">
          <path
             sodipodi:nodetypes="ccccccccc"
             inkscape:connector-curvature="0"
             id="path14231"
             style="fill:#ffffff;fill-opacity:1;fill-rule:nonzero;stroke:none"
             d="m 0,0 -0.053,4.829 c 0,0 -12.672,-0.411 -13.452,-13.036 -0.775,-12.611 14.581,-16.177 19.522,-12.887 4.938,3.279 9.825,8.475 7.072,16.422 L 8.153,-9.607 c 0,0 -0.1093278,-4.73903 -5.346,-7.22 -6.446,-1.868 -11.895,3.998 -11.168,8.989 C -7.635,-2.852 -5.401,-0.73 0,0" />
        </g>
        <g
           transform="translate(1374.7448,659.7809)"
           id="g14233">
          <path
             sodipodi:nodetypes="ccccscccc"
             inkscape:connector-curvature="0"
             id="path14235"
             style="fill:#ffffff;fill-opacity:1;fill-rule:nonzero;stroke:none"
             d="m 0,0 3.77,3.777 c 0,0 -7.083,5.227 -11.445,-0.86 -4.368,-6.086 2.2185949,-11.9595051 5.2086116,-11.697033 2.75522623,-0.2094391 4.8140639,0.8416322 5.2200639,0.8416322 C 3.1466755,-7.9384008 1.392,-3.24 1.392,-3.24 l -1.77937309,-0.1941651 c 0,0 -3.28358731,-0.4641379 -3.32962691,2.5111651 C -3.049,2.519 0.05,0 0.05,0" />
        </g>
        <g
           transform="translate(1383.2268,653.6996)"
           id="g14237">
          <path
             sodipodi:nodetypes="ccccccccc"
             inkscape:connector-curvature="0"
             id="path14239"
             style="fill:#ffffff;fill-opacity:1;fill-rule:nonzero;stroke:none"
             d="M -0.8403207,-0.07702414 -2.5220058,4.6462602 c 0,0 4.5070058,1.1727398 6.6920058,0.05274 2.191,-1.126 7.515,-4.243 4.093,-11.713 -3.429,-7.4750002 -13.02,-2.254 -13.02,-2.254 l 3.7087309,3.6924771 c 0,0 0.68385701,-0.9601675 1.99079866,-0.8708522 1.08206924,0.062208 3.46406794,0.8600359 3.70266854,3.5703954 -0.804286,3.51218057 -5.48646581,2.79358913 -5.48646581,2.79358913" />
        </g>
        <g
           transform="translate(1366.5413,540.4235)"
           id="g14241">
          <path
             inkscape:connector-curvature="0"
             id="path14243"
             style="fill:#ffffff;fill-opacity:1;fill-rule:nonzero;stroke:none"
             d="m 0,0 -3.783,-3.783 -18.809,18.809 3.783,3.783 L 0,0 Z" />
        </g>
        <g
           transform="translate(1379.9587,553.878)"
           id="g14245">
          <path
             inkscape:connector-curvature="0"
             id="path14247"
             style="fill:#ffffff;fill-opacity:1;fill-rule:nonzero;stroke:none"
             d="M 0,0 -3.783,-3.775 -22.6,15.035 -18.82,18.811 0,0 Z" />
        </g>
        <g
           transform="translate(1365.5313,555.9052)"
           id="g14249">
          <path
             inkscape:connector-curvature="0"
             id="path14251"
             style="fill:#ffffff;fill-opacity:1;fill-rule:nonzero;stroke:none"
             d="M 0,0 -4.875,-4.876 -8.692,-1.049 -3.819,3.819 0,0 Z" />
        </g>
        <g
           transform="translate(1382.9238,557.2538)"
           id="g14253" />
        <g
           transform="translate(1375.2021,580.5601)"
           id="g14257" />
        <g
           transform="translate(1386.1495,598.7163)"
           id="g14261">
          <path
             sodipodi:nodetypes="ccccccc"
             inkscape:connector-curvature="0"
             id="path14263"
             style="fill:#ffffff;fill-opacity:1;fill-rule:nonzero;stroke:none"
             d="m 0,0 3.558,3.547 c 0,0 11.913354,-12.0002159 12.586318,-12.6617146 2.721149,-2.7326144 5.546096,-1.0213994 5.546096,-1.0213994 l 3.401743,-3.401121 c 0,0 -5.661005,-5.664005 -11.682157,0.249235 C 0.19784696,0.03206594 0,0 0,0" />
        </g>
        <g
           transform="translate(1398.705,612.9558)"
           id="g14265">
          <path
             sodipodi:nodetypes="ccccccc"
             inkscape:connector-curvature="0"
             id="path14267"
             style="fill:#ffffff;fill-opacity:1;fill-rule:nonzero;stroke:none"
             d="M 0.80537477,-1.0684583 -2.7525689,-4.5872306 c 0,0 0.5772541,-0.5692362 12.7536459,-12.6734034 2.99105,-3.346117 1.384638,-4.910539 1.384638,-4.910539 l 3.378194,-3.342402 c 0,0 5.235161,5.202319 -0.897049,11.430888 C 3.6472252,-3.9594104 0.81118063,-1.0449748 0.81118063,-1.0449748" />
        </g>
        <g
           transform="translate(1416.2587,620.2422)"
           id="g14269">
          <path
             sodipodi:nodetypes="ccccccccc"
             inkscape:connector-curvature="0"
             id="path14271"
             style="fill:#ffffff;fill-opacity:1;fill-rule:nonzero;stroke:none"
             d="m 0,0 3.771,3.772 c 0,0 -7.084,5.23 -11.45,-0.857 -4.37,-6.089 1.9921216,-11.3980686 5.194,-11.644 3.6863471,0.2459314 4.4871728,1.0865942 4.8871728,1.0865942 0.393,-0.005 -1.2606602,4.9337359 -1.2606602,4.9337359 l -1.85271067,-0.5006854 c 0,0 -3.74430943,-0.7482296 -3.36680193,2.41435531 C -2.7584511,2.2649551 0,0 0,0" />
        </g>
        <g
           transform="translate(1422.3467,614.1561)"
           id="g14273">
          <path
             sodipodi:nodetypes="cccccccc"
             inkscape:connector-curvature="0"
             id="path14275"
             style="fill:#ffffff;fill-opacity:1;fill-rule:nonzero;stroke:none"
             d="M -0.84852818,-0.35355341 -2.121,4.499 c 0,0 4.109,1.323 6.285,0.201 C 6.348,3.576 11.685,0.461 8.256,-7.014 4.83,-14.486 -4.767,-9.263 -4.767,-9.263 l 3.842,3.838 c 2.2608871,-0.9317668 4.5236289,-0.9317668 5.089,2.183 0.067,3.373 -4.80039614,2.88844659 -4.80039614,2.88844659" />
        </g>
      </g>
      <path
         inkscape:connector-curvature="0"
         id="path14223-4"
         style="display:inline;opacity:1;fill:#ffffff;fill-opacity:1;fill-rule:nonzero;stroke:none;enable-background:new"
         d="m 75.547571,1001.0025 6.889871,-0.01 7.689787,-14.7025 -3.251807,-6.2959 -11.327851,21.0044 z" />
      <path
         sodipodi:nodetypes="cccccccccc"
         inkscape:connector-curvature="0"
         id="path14227-8"
         style="display:inline;opacity:1;fill:#ffffff;fill-opacity:1;fill-rule:nonzero;stroke:none;enable-background:new"
         d="m 93.103972,968.0075 -3.442726,5.49864 7.08521,15.83212 -3.24562,-0.004 -3.045863,6.03515 9.010303,-0.009 3.577084,5.43499 6.49566,0 -16.434048,-32.79297 z" />
    </g>
  </g>
</svg>
