<?xml version="1.0" encoding="UTF-8" standalone="no"?>
<!-- Created with Inkscape (http://www.inkscape.org/) -->

<svg
   xmlns:dc="http://purl.org/dc/elements/1.1/"
   xmlns:cc="http://creativecommons.org/ns#"
   xmlns:rdf="http://www.w3.org/1999/02/22-rdf-syntax-ns#"
   xmlns:svg="http://www.w3.org/2000/svg"
   xmlns="http://www.w3.org/2000/svg"
   xmlns:sodipodi="http://sodipodi.sourceforge.net/DTD/sodipodi-0.dtd"
   xmlns:inkscape="http://www.inkscape.org/namespaces/inkscape"
   width="140pt"
   height="140pt"
   viewBox="0 0 175 174.99999"
   id="svg12489"
   version="1.1"
   inkscape:version="0.91 r13725"
   sodipodi:docname="logo_rework_white_bg.svg"
   style="enable-background:new">
  <defs
     id="defs12491" />
  <sodipodi:namedview
     id="base"
     pagecolor="#ffffff"
     bordercolor="#666666"
     borderopacity="1.0"
     inkscape:pageopacity="0.0"
     inkscape:pageshadow="2"
     inkscape:zoom="2.8284271"
     inkscape:cx="130.19369"
     inkscape:cy="45.562811"
     inkscape:document-units="pt"
     inkscape:current-layer="svg12489"
     showgrid="true"
     inkscape:window-width="1920"
     inkscape:window-height="1017"
     inkscape:window-x="1912"
     inkscape:window-y="32"
     inkscape:window-maximized="1"
     showguides="true"
     fit-margin-top="0"
     fit-margin-left="0"
     fit-margin-right="0"
     fit-margin-bottom="0"
     units="pt"
     inkscape:snap-bbox="false">
    <inkscape:grid
       type="xygrid"
       id="grid22349"
       originx="0"
       originy="0"
       units="pt"
       spacingx="1.25"
       spacingy="1.2499999" />
  </sodipodi:namedview>
  <metadata
     id="metadata12494">
    <rdf:RDF>
      <cc:Work
         rdf:about="">
        <dc:format>image/svg+xml</dc:format>
        <dc:type
           rdf:resource="http://purl.org/dc/dcmitype/StillImage" />
        <dc:title />
      </cc:Work>
    </rdf:RDF>
  </metadata>
  <path
     style="fill:#ffffff;fill-opacity:1;fill-rule:evenodd;stroke:none;stroke-width:0;stroke-linecap:butt;stroke-linejoin:miter;stroke-miterlimit:4;stroke-dasharray:none;stroke-opacity:1"
     d="m 2.5,2.49999 0,85 170,0 0,-85 -170,0 z"
     id="path6012" />
  <path
     style="fill:#4f4f70;fill-opacity:1;fill-rule:evenodd;stroke:none;stroke-width:0;stroke-linecap:butt;stroke-linejoin:miter;stroke-miterlimit:4;stroke-dasharray:none;stroke-opacity:1"
     d="m 148.95898,23.740224 c 3.36503,-0.1659 5.7826,1.13248 7.50586,2.90625 3.28249,3.37854 4.04493,8.484375 4.04493,8.484375 l -7.96875,0.01367 c 8.5e-4,0.002 0.01,0.05273 0.01,0.05273 l -0.0527,-0.05273 0.043,0 c -0.0187,-0.17314 -0.66569,-5.864334 -4.9668,-2.958984 -3.11327,3.21102 0.86328,6.201172 0.86328,6.201172 l 2.0918,1.679687 c 0,0 -3.13004,6.85435 -3.54688,6.4375 -0.43063,-0.43062 -3.73189,-1.497628 -6.43164,-4.642578 -3.45035,-2.89245 -4.19491,-16.121801 6.90625,-17.957031 0.52012,-0.0864 1.02123,-0.140363 1.50195,-0.164063 z"
     id="path6010" />
  <path
     style="fill:#4f4f70;fill-opacity:1;fill-rule:evenodd;stroke:none;stroke-width:0;stroke-linecap:butt;stroke-linejoin:miter;stroke-miterlimit:4;stroke-dasharray:none;stroke-opacity:1"
     d="m 30.003906,25.316396 c 8.725514,-0.24987 15.280858,5.892455 15.285156,5.896485 l -5.076171,5.1875 c -6.504468,-4.95278 -11.128099,-5.0662 -17.197266,-0.53711 -6.075528,4.53332 -6.529347,16.546728 2.292969,21.398438 8.191164,2.9175 13.34375,-2.003907 13.34375,-2.003907 l 10.478515,-0.0078 C 43.604787,66.61605 32.900198,66.955725 24.177734,65.203115 15.44039,63.459005 2.9429887,43.381711 17.167969,30.800771 c 4.451603,-3.93453 8.868493,-5.370765 12.835937,-5.484375 z"
     id="path6008" />
  <path
     style="fill:#4f4f70;fill-opacity:1;fill-rule:evenodd;stroke:none;stroke-width:0;stroke-linecap:butt;stroke-linejoin:miter;stroke-miterlimit:4;stroke-dasharray:none;stroke-opacity:1"
     d="m 110.92188,25.822256 19.70117,39.371093 -7.80078,0.002 -4.29297,-6.52539 -10.82227,0.02148 3.66602,-7.253906 3.89843,-0.158203 -8.49218,-18.849609 4.14258,-6.607422 z"
     id="path6006" />
  <path
     style="fill:#4f4f70;fill-opacity:1;fill-rule:evenodd;stroke:none;stroke-width:0;stroke-linecap:butt;stroke-linejoin:miter;stroke-miterlimit:4;stroke-dasharray:none;stroke-opacity:1"
     d="m 67.285156,25.910146 -0.04883,39.464844 -7.947266,0.01367 0.03906,-39.460938 7.957031,-0.01758 z"
     id="path6004" />
  <path
     style="fill:#4f4f70;fill-opacity:1;fill-rule:evenodd;stroke:none;stroke-width:0;stroke-linecap:butt;stroke-linejoin:miter;stroke-miterlimit:4;stroke-dasharray:none;stroke-opacity:1"
     d="m 103.42578,40.232412 3.89844,7.558594 -9.255861,17.669922 -8.27539,0.01562 13.632811,-25.24414 z"
     id="path6002" />
  <path
     style="fill:#4f4f70;fill-opacity:1;fill-rule:evenodd;stroke:none;stroke-width:0;stroke-linecap:butt;stroke-linejoin:miter;stroke-miterlimit:4;stroke-dasharray:none;stroke-opacity:1"
     d="m 51.621094,41.99999 -0.002,7.347656 -19.595703,0.01367 0,-7.34375 19.597703,-0.01758 z"
     id="path6000" />
  <path
     style="fill:#4f4f70;fill-opacity:1;fill-rule:evenodd;stroke:none;stroke-width:0;stroke-linecap:butt;stroke-linejoin:miter;stroke-miterlimit:4;stroke-dasharray:none;stroke-opacity:1"
     d="m 157.29492,42.990224 c 0,0 2.35367,1.381668 4.39453,3.273438 0.30615,0.28375 0.60562,0.576929 0.88867,0.880859 l 0,0.002 c 0.8489,0.91201 1.55213,1.902082 1.86915,2.888672 1.1272,3.52062 3.46126,12.479533 -8.10743,16.789063 -11.58143,4.30743 -16.20507,-11.414063 -16.20507,-11.414063 l 7.85937,0.0078 c 0,0 -0.29559,1.747762 1.18555,3.039062 1.21381,1.08161 4.58704,2.760303 7.7207,0.132813 2.87967,-4.58581 -2.84766,-8.789063 -2.84766,-8.789063 l 0.006,-0.0059 3.23633,-6.804688 z"
     id="path5998" />
  <path
     style="fill:#4f4f70;fill-opacity:1;fill-rule:evenodd;stroke:none;stroke-width:0;stroke-linecap:butt;stroke-linejoin:miter;stroke-miterlimit:4;stroke-dasharray:none;stroke-opacity:1"
     d="m 82.125,57.810537 -0.0039,7.472656 -10.667969,0.01758 0.0098,-7.484375 10.662109,-0.0059 z"
     id="glas_red_bg" />
  <path
     style="color:#000000;font-style:normal;font-variant:normal;font-weight:normal;font-stretch:normal;font-size:medium;line-height:normal;font-family:sans-serif;text-indent:0;text-align:start;text-decoration:none;text-decoration-line:none;text-decoration-style:solid;text-decoration-color:#000000;letter-spacing:normal;word-spacing:normal;text-transform:none;direction:ltr;block-progression:tb;writing-mode:lr-tb;baseline-shift:baseline;text-anchor:start;white-space:normal;clip-rule:nonzero;display:inline;overflow:visible;visibility:visible;opacity:1;isolation:auto;mix-blend-mode:normal;color-interpolation:sRGB;color-interpolation-filters:linearRGB;solid-color:#000000;solid-opacity:1;fill:#4f4f70;fill-opacity:1;fill-rule:evenodd;stroke:none;stroke-width:3.75;stroke-linecap:butt;stroke-linejoin:miter;stroke-miterlimit:4;stroke-dasharray:none;stroke-dashoffset:0;stroke-opacity:1;color-rendering:auto;image-rendering:auto;shape-rendering:auto;text-rendering:auto;enable-background:accumulate"
     d="M 0,2.3706055e-6 0,175 1.875,175 175,175 175,2.3706055e-6 l -175,0 z M 3.75,3.7500024 l 167.5,0 0,167.4999976 -167.5,0 0,-167.4999976 z"
     id="border"
     inkscape:connector-curvature="0" />
  <path
     style="fill:#ffffff;fill-opacity:1;fill-rule:evenodd;stroke:none;stroke-width:0;stroke-linecap:butt;stroke-linejoin:miter;stroke-miterlimit:4;stroke-dasharray:none;stroke-opacity:1;enable-background:new"
     d="M 0 87.5 L 0 175 L 1.875 175 L 175 175 L 175 87.5 L 171.25 87.5 L 171.25 171.25 L 3.75 171.25 L 3.75 87.5 L 0 87.5 z "
     transform="translate(0,-7.6293945e-6)"
     id="bg_bottom_white" />
  <g
     id="haus"
     inkscape:label="#g5427"
     style="fill:#ffffff;fill-opacity:1">
    <path
       inkscape:connector-curvature="0"
       id="path14243"
       style="display:inline;opacity:1;fill:#ffffff;fill-opacity:1;fill-rule:nonzero;stroke:none;enable-background:new"
       d="m 18.627907,148.614 -8.024952,0 0,-39.8999 8.024952,0 0,39.8999 z" />
    <path
       inkscape:connector-curvature="0"
       id="path14247"
       style="display:inline;opacity:1;fill:#ffffff;fill-opacity:1;fill-rule:nonzero;stroke:none;enable-background:new"
       d="m 47.129863,148.57464 -8.01648,-0.012 -0.0072,-39.90939 8.014344,0.005 0.0096,39.91368 z" />
    <path
       inkscape:connector-curvature="0"
       id="path14251"
       style="display:inline;opacity:1;fill:#ffffff;fill-opacity:1;fill-rule:nonzero;stroke:none;enable-background:new"
       d="m 33.977455,131.12196 -10.342488,0.001 0.0108,-8.1078 10.33188,0 0,8.10132 z" />
    <path
       sodipodi:nodetypes="ccccccc"
       inkscape:connector-curvature="0"
       id="path14263"
       style="display:inline;opacity:1;fill:#ffffff;fill-opacity:1;fill-rule:nonzero;stroke:none;enable-background:new"
       d="m 103.37876,108.14715 7.53599,0.012 c 0,0 -0.0922,25.3642 -0.0799,26.7796 -0.0122,5.7846 4.79906,6.96576 4.79906,6.96576 l 6.9e-4,7.2156 c 0,0 -12.01194,0 -12.12637,-12.65508 0.11448,-28.1417 -0.1294,-28.31754 -0.1294,-28.31754" />
    <path
       sodipodi:nodetypes="ccccccc"
       inkscape:connector-curvature="0"
       id="path14267"
       style="display:inline;opacity:1;fill:#ffffff;fill-opacity:1;fill-rule:nonzero;stroke:none;enable-background:new"
       d="m 131.52011,108.34851 -7.50597,-0.0415 c 0,0 0.008,1.21598 0.085,26.96934 -0.37662,6.72156 -3.73979,6.67704 -3.73979,6.67704 l 0.038,7.12836 c 0,0 11.07058,0.0348 11.17283,-13.0758 -0.10212,-21.57687 -0.019,-27.67612 -0.019,-27.67612" />
    <path
       sodipodi:nodetypes="ccccccccc"
       inkscape:connector-curvature="0"
       id="path14271"
       style="display:inline;opacity:1;fill:#ffffff;fill-opacity:1;fill-rule:nonzero;stroke:none;enable-background:new"
       d="m 154.17921,119.41383 8.00059,-9.6e-4 c 0,0 -1.96647,-13.061 -13.05354,-11.2356 -11.09345,1.82327 -9.97656,14.20236 -6.84126,17.85936 4.17078,3.64908 5.91181,3.60684 6.33608,4.03104 0.41179,0.42204 3.89591,-6.57012 3.89591,-6.57012 l -2.49616,-1.434 c 0,0 -4.76508,-3.17784 -1.01023,-6.13184 4.64514,-1.84601 5.16861,3.48212 5.16861,3.48212" />
    <path
       sodipodi:nodetypes="cccccccc"
       inkscape:connector-curvature="0"
       id="path14275"
       style="display:inline;opacity:1;fill:#ffffff;fill-opacity:1;fill-rule:nonzero;stroke:none;enable-background:new"
       d="m 152.90619,131.80143 3.79732,-6.49656 c 0,0 5.76147,2.955 6.8794,6.453 1.1243,3.50868 3.48113,12.4734 -8.08435,16.76484 -11.55907,4.29147 -16.19836,-11.42748 -16.19836,-11.42748 l 8.14587,0 c 1.40973,3.38628 3.80972,5.78628 7.71308,3.0822 3.64889,-3.50628 -2.02793,-8.1552 -2.02793,-8.1552" />
    <path
       inkscape:connector-curvature="0"
       id="path14223-4"
       style="display:inline;opacity:1;fill:#ffffff;fill-opacity:1;fill-rule:nonzero;stroke:none;enable-background:new"
       d="m 54.860217,148.43189 8.267833,-0.012 9.2277,-17.64312 -3.902136,-7.55496 -13.593457,25.20516 z" />
    <path
       sodipodi:nodetypes="cccccccccc"
       inkscape:connector-curvature="0"
       id="path14227-8"
       style="display:inline;opacity:1;fill:#ffffff;fill-opacity:1;fill-rule:nonzero;stroke:none;enable-background:new"
       d="m 75.927862,108.83785 -4.131264,6.59836 8.502268,18.99852 -3.89471,0 -3.655082,7.24224 10.812372,-0.012 4.29251,6.522 7.79477,-1.2e-4 -19.720852,-39.35149 z" />
  </g>
</svg>
