<?xml version="1.0" encoding="UTF-8" standalone="no"?>
<!-- Created with Inkscape (http://www.inkscape.org/) -->

<svg
   xmlns:dc="http://purl.org/dc/elements/1.1/"
   xmlns:cc="http://creativecommons.org/ns#"
   xmlns:rdf="http://www.w3.org/1999/02/22-rdf-syntax-ns#"
   xmlns:svg="http://www.w3.org/2000/svg"
   xmlns="http://www.w3.org/2000/svg"
   xmlns:sodipodi="http://sodipodi.sourceforge.net/DTD/sodipodi-0.dtd"
   xmlns:inkscape="http://www.inkscape.org/namespaces/inkscape"
   width="197.9899pt"
   height="197.9899pt"
   viewBox="0 0 247.48737 247.48736"
   id="svg12489"
   version="1.1"
   inkscape:version="0.91 r13725"
   sodipodi:docname="logo_rework_white_bg_rot.svg"
   style="enable-background:new">
  <defs
     id="defs12491" />
  <sodipodi:namedview
     id="base"
     pagecolor="#ffffff"
     bordercolor="#666666"
     borderopacity="1.0"
     inkscape:pageopacity="0.0"
     inkscape:pageshadow="2"
     inkscape:zoom="2.8284271"
     inkscape:cx="163.78573"
     inkscape:cy="81.806509"
     inkscape:document-units="pt"
     inkscape:current-layer="svg12489"
     showgrid="true"
     inkscape:window-width="1920"
     inkscape:window-height="1017"
     inkscape:window-x="1912"
     inkscape:window-y="32"
     inkscape:window-maximized="1"
     showguides="true"
     fit-margin-top="0"
     fit-margin-left="0"
     fit-margin-right="0"
     fit-margin-bottom="0"
     units="pt"
     inkscape:snap-bbox="false">
    <inkscape:grid
       type="xygrid"
       id="grid22349"
       originx="36.243687"
       originy="36.243697"
       units="pt"
       spacingx="1.25"
       spacingy="1.2499999" />
  </sodipodi:namedview>
  <metadata
     id="metadata12494">
    <rdf:RDF>
      <cc:Work
         rdf:about="">
        <dc:format>image/svg+xml</dc:format>
        <dc:type
           rdf:resource="http://purl.org/dc/dcmitype/StillImage" />
        <dc:title></dc:title>
      </cc:Work>
    </rdf:RDF>
  </metadata>
  <path
     style="fill:#ffffff;fill-opacity:1;fill-rule:evenodd;stroke:none;stroke-width:0;stroke-linecap:butt;stroke-linejoin:miter;stroke-miterlimit:4;stroke-dasharray:none;stroke-opacity:1"
     d="M 3.535525,123.74367 63.639602,183.84775 183.84776,63.639594 123.74368,3.5355174 3.535525,123.74367 Z"
     id="path6012"
     inkscape:connector-curvature="0" />
  <path
     style="fill:#4f4f70;fill-opacity:1;fill-rule:evenodd;stroke:none;stroke-width:0;stroke-linecap:butt;stroke-linejoin:miter;stroke-miterlimit:4;stroke-dasharray:none;stroke-opacity:1"
     d="m 122.11678,35.200646 c 2.26212,-2.496744 4.8897,-3.288131 7.36247,-3.252415 4.71006,0.06792 8.85956,3.139161 8.85956,3.139161 l -5.62509,5.644424 c 0.002,8.13e-4 0.0444,0.03021 0.0444,0.03021 l -0.0746,-2.1e-5 0.0304,-0.03041 c -0.13566,-0.109206 -4.61743,-3.675997 -5.60438,1.41974 0.0691,4.471948 4.99532,3.774459 4.99532,3.774459 l 2.66685,-0.291407 c 0,0 2.63349,7.060029 2.04398,7.060022 -0.609,7e-6 -3.69783,1.579862 -7.83066,1.265058 -4.48504,0.394495 -14.36608,-8.433585 -7.81408,-17.580994 0.30668,-0.428875 0.62286,-0.821371 0.94603,-1.178049 z"
     id="path6010"
     inkscape:connector-curvature="0" />
  <path
     style="fill:#4f4f70;fill-opacity:1;fill-rule:evenodd;stroke:none;stroke-width:0;stroke-linecap:butt;stroke-linejoin:miter;stroke-miterlimit:4;stroke-dasharray:none;stroke-opacity:1"
     d="m 39.117359,120.42911 c 5.993185,-6.34656 14.971793,-6.63861 14.977682,-6.6388 l 0.07872,7.25752 c -8.101496,1.09721 -11.451097,4.28641 -12.540096,11.78051 -1.090506,7.50159 7.083358,16.31725 16.752355,13.5096 7.855011,-3.72904 8.01848,-10.85243 8.01848,-10.85243 l 7.403913,-7.41494 c 4.129487,11.94453 -3.199614,19.754 -10.60661,24.68244 -7.411507,4.94496 -30.445295,-0.41483 -29.282783,-19.36949 0.365626,-5.92989 2.473267,-10.06867 5.198339,-12.95441 z"
     id="path6008"
     inkscape:connector-curvature="0" />
  <path
     style="fill:#4f4f70;fill-opacity:1;fill-rule:evenodd;stroke:none;stroke-width:0;stroke-linecap:butt;stroke-linejoin:miter;stroke-miterlimit:4;stroke-dasharray:none;stroke-opacity:1"
     d="m 96.692704,63.569156 41.770406,13.908736 -5.51458,5.517399 -7.64973,-1.57856 -7.63732,7.66769 -2.53701,-7.721554 2.64474,-2.868473 -19.333569,-7.323808 -1.742906,-7.601399 z"
     id="path6006"
     inkscape:connector-curvature="0" />
  <path
     style="fill:#4f4f70;fill-opacity:1;fill-rule:evenodd;stroke:none;stroke-width:0;stroke-linecap:butt;stroke-linejoin:miter;stroke-miterlimit:4;stroke-dasharray:none;stroke-opacity:1"
     d="m 65.899028,94.487127 27.871331,27.940383 -5.609899,5.62924 -27.875478,-27.93072 5.61404,-5.638902 z"
     id="path6004"
     inkscape:connector-curvature="0" />
  <path
     style="fill:#4f4f70;fill-opacity:1;fill-rule:evenodd;stroke:none;stroke-width:0;stroke-linecap:butt;stroke-linejoin:miter;stroke-miterlimit:4;stroke-dasharray:none;stroke-opacity:1"
     d="m 101.58168,79.059218 8.10135,2.58812 5.94964,19.039402 -5.84054,5.86263 -8.21045,-27.490155 z"
     id="path6002"
     inkscape:connector-curvature="0" />
  <path
     style="fill:#4f4f70;fill-opacity:1;fill-rule:evenodd;stroke:none;stroke-width:0;stroke-linecap:butt;stroke-linejoin:miter;stroke-miterlimit:4;stroke-dasharray:none;stroke-opacity:1"
     d="m 66.200102,116.94053 5.194163,5.19699 -13.846588,13.86592 -5.192816,-5.19281 13.845238,-13.8701 z"
     id="path6000"
     inkscape:connector-curvature="0" />
  <path
     style="fill:#4f4f70;fill-opacity:1;fill-rule:evenodd;stroke:none;stroke-width:0;stroke-linecap:butt;stroke-linejoin:miter;stroke-miterlimit:4;stroke-dasharray:none;stroke-opacity:1"
     d="m 141.62299,42.918052 c 0,0 2.64128,-0.687309 5.42207,-0.792732 0.41712,-0.01584 0.83619,-0.02029 1.25124,-0.0055 l 0.001,0.0014 c 1.24515,0.04463 2.4425,0.247454 3.36429,0.720911 3.2865,1.692404 11.27184,6.376882 6.13884,17.604479 -5.1435,11.235121 -19.52968,3.387753 -19.52968,3.387753 l 5.56293,-5.551898 c 0,0 1.02684,1.444868 2.98725,1.310631 1.62311,-0.09348 5.19536,-1.291698 5.55328,-5.365446 -1.20643,-5.278892 -8.22841,-4.201207 -8.22841,-4.201207 l 7e-5,-0.0084 -2.52321,-7.100072 z"
     id="path5998"
     inkscape:connector-curvature="0" />
  <path
     style="fill:#4f4f70;fill-opacity:1;fill-rule:evenodd;stroke:none;stroke-width:0;stroke-linecap:butt;stroke-linejoin:miter;stroke-miterlimit:4;stroke-dasharray:none;stroke-opacity:1"
     d="m 98.949366,106.55076 5.281204,5.28672 -7.530959,7.55582 -5.285322,-5.29918 7.535077,-7.54342 z"
     id="glas_red_bg"
     inkscape:connector-curvature="0" />
  <path
     style="color:#000000;font-style:normal;font-variant:normal;font-weight:normal;font-stretch:normal;font-size:medium;line-height:normal;font-family:sans-serif;text-indent:0;text-align:start;text-decoration:none;text-decoration-line:none;text-decoration-style:solid;text-decoration-color:#000000;letter-spacing:normal;word-spacing:normal;text-transform:none;direction:ltr;block-progression:tb;writing-mode:lr-tb;baseline-shift:baseline;text-anchor:start;white-space:normal;clip-rule:nonzero;display:inline;overflow:visible;visibility:visible;opacity:1;isolation:auto;mix-blend-mode:normal;color-interpolation:sRGB;color-interpolation-filters:linearRGB;solid-color:#000000;solid-opacity:1;fill:#4f4f70;fill-opacity:1;fill-rule:evenodd;stroke:none;stroke-width:3.75;stroke-linecap:butt;stroke-linejoin:miter;stroke-miterlimit:4;stroke-dasharray:none;stroke-dashoffset:0;stroke-opacity:1;color-rendering:auto;image-rendering:auto;shape-rendering:auto;text-rendering:auto;enable-background:accumulate"
     d="m 0,123.74368 123.74369,123.74369 1.32582,-1.32583 L 247.48738,123.74368 123.74369,-7.6293945e-6 0,123.74368 Z m 5.303301,0 L 123.74369,5.3032934 242.18408,123.74368 123.74369,242.18407 5.303301,123.74368 Z"
     id="border"
     inkscape:connector-curvature="0" />
  <path
     style="fill:#ffffff;fill-opacity:1;fill-rule:evenodd;stroke:none;stroke-width:0;stroke-linecap:butt;stroke-linejoin:miter;stroke-miterlimit:4;stroke-dasharray:none;stroke-opacity:1;enable-background:new"
     d="m 61.871836,185.61552 61.871844,61.87184 1.32582,-1.32582 122.41787,-122.41787 -61.87184,-61.871841 -2.65165,2.65165 59.22019,59.220191 -118.44039,118.44039 -59.220193,-59.22019 -2.651651,2.65165 z"
     id="bg_bottom_white"
     inkscape:connector-curvature="0" />
  <g
     id="haus"
     inkscape:label="#g5427"
     style="fill:#ffffff;fill-opacity:1"
     transform="matrix(0.70710678,-0.70710678,0.70710678,0.70710678,-2e-6,123.74368)">
    <path
       inkscape:connector-curvature="0"
       id="path14243"
       style="display:inline;opacity:1;fill:#ffffff;fill-opacity:1;fill-rule:nonzero;stroke:none;enable-background:new"
       d="m 18.627907,148.614 -8.024952,0 0,-39.8999 8.024952,0 0,39.8999 z" />
    <path
       inkscape:connector-curvature="0"
       id="path14247"
       style="display:inline;opacity:1;fill:#ffffff;fill-opacity:1;fill-rule:nonzero;stroke:none;enable-background:new"
       d="m 47.129863,148.57464 -8.01648,-0.012 -0.0072,-39.90939 8.014344,0.005 0.0096,39.91368 z" />
    <path
       inkscape:connector-curvature="0"
       id="path14251"
       style="display:inline;opacity:1;fill:#ffffff;fill-opacity:1;fill-rule:nonzero;stroke:none;enable-background:new"
       d="m 33.977455,131.12196 -10.342488,0.001 0.0108,-8.1078 10.33188,0 0,8.10132 z" />
    <path
       sodipodi:nodetypes="ccccccc"
       inkscape:connector-curvature="0"
       id="path14263"
       style="display:inline;opacity:1;fill:#ffffff;fill-opacity:1;fill-rule:nonzero;stroke:none;enable-background:new"
       d="m 103.37876,108.14715 7.53599,0.012 c 0,0 -0.0922,25.3642 -0.0799,26.7796 -0.0122,5.7846 4.79906,6.96576 4.79906,6.96576 l 6.9e-4,7.2156 c 0,0 -12.01194,0 -12.12637,-12.65508 0.11448,-28.1417 -0.1294,-28.31754 -0.1294,-28.31754" />
    <path
       sodipodi:nodetypes="ccccccc"
       inkscape:connector-curvature="0"
       id="path14267"
       style="display:inline;opacity:1;fill:#ffffff;fill-opacity:1;fill-rule:nonzero;stroke:none;enable-background:new"
       d="m 131.52011,108.34851 -7.50597,-0.0415 c 0,0 0.008,1.21598 0.085,26.96934 -0.37662,6.72156 -3.73979,6.67704 -3.73979,6.67704 l 0.038,7.12836 c 0,0 11.07058,0.0348 11.17283,-13.0758 -0.10212,-21.57687 -0.019,-27.67612 -0.019,-27.67612" />
    <path
       sodipodi:nodetypes="ccccccccc"
       inkscape:connector-curvature="0"
       id="path14271"
       style="display:inline;opacity:1;fill:#ffffff;fill-opacity:1;fill-rule:nonzero;stroke:none;enable-background:new"
       d="m 154.17921,119.41383 8.00059,-9.6e-4 c 0,0 -1.96647,-13.061 -13.05354,-11.2356 -11.09345,1.82327 -9.97656,14.20236 -6.84126,17.85936 4.17078,3.64908 5.91181,3.60684 6.33608,4.03104 0.41179,0.42204 3.89591,-6.57012 3.89591,-6.57012 l -2.49616,-1.434 c 0,0 -4.76508,-3.17784 -1.01023,-6.13184 4.64514,-1.84601 5.16861,3.48212 5.16861,3.48212" />
    <path
       sodipodi:nodetypes="cccccccc"
       inkscape:connector-curvature="0"
       id="path14275"
       style="display:inline;opacity:1;fill:#ffffff;fill-opacity:1;fill-rule:nonzero;stroke:none;enable-background:new"
       d="m 152.90619,131.80143 3.79732,-6.49656 c 0,0 5.76147,2.955 6.8794,6.453 1.1243,3.50868 3.48113,12.4734 -8.08435,16.76484 -11.55907,4.29147 -16.19836,-11.42748 -16.19836,-11.42748 l 8.14587,0 c 1.40973,3.38628 3.80972,5.78628 7.71308,3.0822 3.64889,-3.50628 -2.02793,-8.1552 -2.02793,-8.1552" />
    <path
       inkscape:connector-curvature="0"
       id="path14223-4"
       style="display:inline;opacity:1;fill:#ffffff;fill-opacity:1;fill-rule:nonzero;stroke:none;enable-background:new"
       d="m 54.860217,148.43189 8.267833,-0.012 9.2277,-17.64312 -3.902136,-7.55496 -13.593457,25.20516 z" />
    <path
       sodipodi:nodetypes="cccccccccc"
       inkscape:connector-curvature="0"
       id="path14227-8"
       style="display:inline;opacity:1;fill:#ffffff;fill-opacity:1;fill-rule:nonzero;stroke:none;enable-background:new"
       d="m 75.927862,108.83785 -4.131264,6.59836 8.502268,18.99852 -3.89471,0 -3.655082,7.24224 10.812372,-0.012 4.29251,6.522 7.79477,-1.2e-4 -19.720852,-39.35149 z" />
  </g>
</svg>
