<?xml version="1.0" encoding="UTF-8" standalone="no"?>
<!-- Created with Inkscape (http://www.inkscape.org/) -->

<svg
   xmlns:dc="http://purl.org/dc/elements/1.1/"
   xmlns:cc="http://creativecommons.org/ns#"
   xmlns:rdf="http://www.w3.org/1999/02/22-rdf-syntax-ns#"
   xmlns:svg="http://www.w3.org/2000/svg"
   xmlns="http://www.w3.org/2000/svg"
   xmlns:sodipodi="http://sodipodi.sourceforge.net/DTD/sodipodi-0.dtd"
   xmlns:inkscape="http://www.inkscape.org/namespaces/inkscape"
   width="58.766712mm"
   height="58.762856mm"
   viewBox="0 0 208.22851 208.21484"
   id="svg12489"
   version="1.1"
   inkscape:version="0.91 r13725"
   sodipodi:docname="logo_color.svg"
   style="enable-background:new">
  <defs
     id="defs12491" />
  <sodipodi:namedview
     id="base"
     pagecolor="#ffffff"
     bordercolor="#666666"
     borderopacity="1.0"
     inkscape:pageopacity="0.0"
     inkscape:pageshadow="2"
     inkscape:zoom="4.0000002"
     inkscape:cx="109.1813"
     inkscape:cy="90.184587"
     inkscape:document-units="px"
     inkscape:current-layer="g14189"
     showgrid="true"
     inkscape:window-width="1920"
     inkscape:window-height="1017"
     inkscape:window-x="1912"
     inkscape:window-y="32"
     inkscape:window-maximized="1"
     showguides="false"
     fit-margin-top="0"
     fit-margin-left="0"
     fit-margin-right="0"
     fit-margin-bottom="0">
    <inkscape:grid
       type="xygrid"
       id="grid22349"
       originx="-2.0000001e-005"
       originy="-1.4724409e-005" />
  </sodipodi:namedview>
  <metadata
     id="metadata12494">
    <rdf:RDF>
      <cc:Work
         rdf:about="">
        <dc:format>image/svg+xml</dc:format>
        <dc:type
           rdf:resource="http://purl.org/dc/dcmitype/StillImage" />
        <dc:title />
      </cc:Work>
    </rdf:RDF>
  </metadata>
  <g
     inkscape:groupmode="layer"
     id="layer4"
     inkscape:label="Ebene 2"
     transform="translate(-2e-5,-844.14735)">
    <g
       id="g22369"
       transform="matrix(0.70710678,-0.70710678,0.70710678,0.70710678,-640.02316,351.35778)">
      <g
         id="g14189"
         style="display:inline;opacity:1"
         transform="matrix(0.88388348,0.88388348,0.88388348,-0.88388348,-1639.5933,271.21648)">
        <g
           clip-path="none"
           transform="translate(1370.2666,520.1143)"
           id="g14197">
          <path
             inkscape:connector-curvature="0"
             id="path14199"
             transform="matrix(0.8,0,0,-0.8,-388.86004,354.66978)"
             d="M 483.86328,235.12305 380.85352,338.32422 486.07422,443.33789 589.08203,340.13672 Z m 0.0684,4.79101 61.94347,61.82517 38.27919,38.20608 -98.37696,98.5586 L 385.56645,338.4668 Z"
             style="fill:#4f4f70;fill-opacity:1;fill-rule:nonzero;stroke:none"
             sodipodi:nodetypes="ccccccccccc" />
        </g>
        <g
           transform="translate(1370.0283,523.9812)"
           id="g14201" />
        <g
           mask="none"
           style="fill:#000000;fill-opacity:0.475"
           transform="translate(1329.9767,563.9684)"
           id="g14205">
          <path
             style="fill:#9e2b25;fill-opacity:1;fill-rule:nonzero;stroke:none"
             d="M 38.644005,119.11571 -40.116937,40.044059 0.0111901,-0.08829187 78.778384,78.983387 38.644005,119.11571 Z m 3.918753,-17.32234 c 3.14004,-0.0453 5.906248,-2.091713 5.906248,-2.091713 l -3.75,-3.763827 c 0.0016,-0.0011 0.02968,-0.02034 0.02968,-0.02034 l -0.05,0 0.02032,0.02034 c -0.09043,0.07277 -3.077968,2.451505 -3.735937,-0.945655 0.04608,-2.981305 3.329689,-2.516 3.329689,-2.516 l 1.77812,0.194139 c 0,0 1.755504,-4.707916 1.362504,-4.707916 -0.406,1e-6 -2.465088,-1.052182 -5.220312,-0.842319 -2.990017,-0.263003 -9.577377,5.622192 -5.209377,11.720469 1.635752,2.287222 3.65504,2.980042 5.539065,2.952822 z M 55.10807,95.012529 c 0.830096,-0.02974 1.629216,-0.16502 2.243752,-0.480655 2.191001,-1.128271 7.514185,-4.251059 4.092185,-11.736128 -3.429,-7.490078 -13.020313,-2.259233 -13.020313,-2.259233 l 3.709376,3.7012 c 0,0 0.68368,-0.963128 1.990624,-0.873633 1.082072,0.06233 3.46452,0.861687 3.703129,3.577514 -0.804289,3.519265 -5.485945,2.799387 -5.485945,2.799387 l 0,0.0062 -1.681248,4.732966 c 0,0 1.760208,0.458911 3.614064,0.52919 0.27808,0.01055 0.557672,0.01305 0.834376,0.0031 z m -32.35469,-13.439554 27.846874,-9.271792 -3.67656,-3.67928 -5.09844,1.052118 -5.092185,-5.111854 -1.690626,5.147863 1.762498,1.911661 -12.889061,4.883267 -1.1625,5.068017 z m 3.259375,-10.32704 5.401563,-1.725348 3.965625,-12.69274 -3.893751,-3.907868 -5.473437,18.325956 z M 2.7065031,61.189752 21.287755,42.563195 17.547129,38.810328 -1.0356844,57.430621 2.7065031,61.189752 Z m 22.0343769,-8.042754 3.520312,-3.524281 -5.020312,-5.036702 -3.523438,3.53211 5.023438,5.028873 z m -31.97344,-7.106491 0.053128,-4.839429 c -5.400999,-0.731473 -7.634938,-2.857257 -8.360938,-7.853315 -0.727,-5.001069 4.722751,-10.878958 11.168751,-9.007196 5.23667235,2.486036 5.34531236,7.234882 5.34531236,7.234882 L 5.9096313,36.519773 C 8.6626314,28.556741 3.7757559,23.350389 -1.1622436,20.064776 -6.1032495,16.768137 -21.45912,20.341838 -20.68412,32.978275 c 0.78,12.650439 13.4515632,13.062232 13.4515632,13.062232 z m 8.07031335,-2.101106 3.46249945,-3.464787 -9.2312502,-9.24361 -3.4625002,3.461659 9.23125095,9.246738 z"
             id="path14207"
             inkscape:connector-curvature="0" />
        </g>
        <g
           transform="translate(1334.3455,604.4494)"
           id="g14209" />
        <g
           transform="translate(1347.592,602.7882)"
           id="g14213" />
        <g
           transform="translate(1358.3058,613.5792)"
           id="g14217" />
        <g
           transform="translate(1361.5319,616.8696)"
           id="g14221" />
        <g
           transform="translate(1352.7985,645.4658)"
           id="g14225" />
        <g
           transform="translate(1322.8665,605.1748)"
           id="g14229" />
        <g
           transform="translate(1374.7448,659.7809)"
           id="g14233" />
        <g
           transform="translate(1383.2268,653.6996)"
           id="g14237" />
        <g
           transform="translate(1366.5413,540.4235)"
           id="g14241">
          <path
             inkscape:connector-curvature="0"
             id="path14243"
             style="fill:#4f4f70;fill-opacity:1;fill-rule:nonzero;stroke:none"
             d="m 0,0 -3.783,-3.783 -18.809,18.809 3.783,3.783 L 0,0 Z" />
        </g>
        <g
           transform="translate(1379.9587,553.878)"
           id="g14245">
          <path
             inkscape:connector-curvature="0"
             id="path14247"
             style="fill:#4f4f70;fill-opacity:1;fill-rule:nonzero;stroke:none"
             d="M 0,0 -3.783,-3.775 -22.6,15.035 -18.82,18.811 0,0 Z" />
        </g>
        <g
           transform="translate(1365.5313,555.9052)"
           id="g14249">
          <path
             inkscape:connector-curvature="0"
             id="path14251"
             style="fill:#4f4f70;fill-opacity:1;fill-rule:nonzero;stroke:none"
             d="M 0,0 -4.875,-4.876 -8.692,-1.049 -3.819,3.819 0,0 Z" />
        </g>
        <g
           transform="translate(1382.9238,557.2538)"
           id="g14253" />
        <g
           transform="translate(1375.2021,580.5601)"
           id="g14257" />
        <g
           transform="translate(1386.1495,598.7163)"
           id="g14261">
          <path
             sodipodi:nodetypes="ccccccc"
             inkscape:connector-curvature="0"
             id="path14263"
             style="fill:#4f4f70;fill-opacity:1;fill-rule:nonzero;stroke:none"
             d="m 0,0 3.558,3.547 c 0,0 11.913354,-12.0002159 12.586318,-12.6617146 2.721149,-2.7326144 5.546096,-1.0213994 5.546096,-1.0213994 l 3.401743,-3.401121 c 0,0 -5.661005,-5.664005 -11.682157,0.249235 C 0.19784696,0.03206594 0,0 0,0" />
        </g>
        <g
           transform="translate(1398.705,612.9558)"
           id="g14265">
          <path
             sodipodi:nodetypes="ccccccc"
             inkscape:connector-curvature="0"
             id="path14267"
             style="fill:#4f4f70;fill-opacity:1;fill-rule:nonzero;stroke:none"
             d="M 0.80537477,-1.0684583 -2.7525689,-4.5872306 c 0,0 0.5772541,-0.5692362 12.7536459,-12.6734034 2.99105,-3.346117 1.384638,-4.910539 1.384638,-4.910539 l 3.378194,-3.342402 c 0,0 5.235161,5.202319 -0.897049,11.430888 C 3.6472252,-3.9594104 0.81118063,-1.0449748 0.81118063,-1.0449748" />
        </g>
        <g
           transform="translate(1416.2587,620.2422)"
           id="g14269">
          <path
             sodipodi:nodetypes="ccccccccc"
             inkscape:connector-curvature="0"
             id="path14271"
             style="fill:#4f4f70;fill-opacity:1;fill-rule:nonzero;stroke:none"
             d="m 0,0 3.771,3.772 c 0,0 -7.084,5.23 -11.45,-0.857 -4.37,-6.089 1.9921216,-11.3980686 5.194,-11.644 3.6863471,0.2459314 4.4871728,1.0865942 4.8871728,1.0865942 0.393,-0.005 -1.2606602,4.9337359 -1.2606602,4.9337359 l -1.85271067,-0.5006854 c 0,0 -3.74430943,-0.7482296 -3.36680193,2.41435531 C -2.7584511,2.2649551 0,0 0,0" />
        </g>
        <g
           transform="translate(1422.3467,614.1561)"
           id="g14273">
          <path
             sodipodi:nodetypes="cccccccc"
             inkscape:connector-curvature="0"
             id="path14275"
             style="fill:#4f4f70;fill-opacity:1;fill-rule:nonzero;stroke:none"
             d="M -0.84852818,-0.35355341 -2.121,4.499 c 0,0 4.109,1.323 6.285,0.201 C 6.348,3.576 11.685,0.461 8.256,-7.014 4.83,-14.486 -4.767,-9.263 -4.767,-9.263 l 3.842,3.838 c 2.2608871,-0.9317668 4.5236289,-0.9317668 5.089,2.183 0.067,3.373 -4.80039614,2.88844659 -4.80039614,2.88844659" />
        </g>
      </g>
      <path
         inkscape:connector-curvature="0"
         id="path14223-4"
         style="display:inline;opacity:1;fill:#4f4f70;fill-opacity:1;fill-rule:nonzero;stroke:none;enable-background:new"
         d="m 75.547571,1001.0025 6.889871,-0.01 7.689787,-14.7025 -3.251807,-6.2959 -11.327851,21.0044 z" />
      <path
         sodipodi:nodetypes="cccccccccc"
         inkscape:connector-curvature="0"
         id="path14227-8"
         style="display:inline;opacity:1;fill:#4f4f70;fill-opacity:1;fill-rule:nonzero;stroke:none;enable-background:new"
         d="m 93.103972,968.0075 -3.442726,5.49864 7.08521,15.83212 -3.24562,-0.004 -3.045863,6.03515 9.010303,-0.009 3.577084,5.43499 6.49566,0 -16.434048,-32.79297 z" />
    </g>
  </g>
</svg>
