<?xml version="1.0" encoding="UTF-8" standalone="no"?>
<!-- Created with Inkscape (http://www.inkscape.org/) -->

<svg
   xmlns:dc="http://purl.org/dc/elements/1.1/"
   xmlns:cc="http://creativecommons.org/ns#"
   xmlns:rdf="http://www.w3.org/1999/02/22-rdf-syntax-ns#"
   xmlns:svg="http://www.w3.org/2000/svg"
   xmlns="http://www.w3.org/2000/svg"
   xmlns:sodipodi="http://sodipodi.sourceforge.net/DTD/sodipodi-0.dtd"
   xmlns:inkscape="http://www.inkscape.org/namespaces/inkscape"
   width="58.766712mm"
   height="58.762856mm"
   viewBox="0 0 208.22851 208.21484"
   id="svg12489"
   version="1.1"
   inkscape:version="0.91 r13725"
   sodipodi:docname="logo_white_new.svg"
   style="enable-background:new">
  <defs
     id="defs12491" />
  <sodipodi:namedview
     id="base"
     pagecolor="#ffffff"
     bordercolor="#666666"
     borderopacity="1.0"
     inkscape:pageopacity="0.0"
     inkscape:pageshadow="2"
     inkscape:zoom="4"
     inkscape:cx="190.58462"
     inkscape:cy="67.572949"
     inkscape:document-units="px"
     inkscape:current-layer="g22369"
     showgrid="true"
     inkscape:window-width="1920"
     inkscape:window-height="1017"
     inkscape:window-x="1912"
     inkscape:window-y="32"
     inkscape:window-maximized="1"
     showguides="false"
     fit-margin-top="0"
     fit-margin-left="0"
     fit-margin-right="0"
     fit-margin-bottom="0">
    <inkscape:grid
       type="xygrid"
       id="grid22349"
       originx="-2.0000001e-005"
       originy="-1.4724409e-005" />
  </sodipodi:namedview>
  <metadata
     id="metadata12494">
    <rdf:RDF>
      <cc:Work
         rdf:about="">
        <dc:format>image/svg+xml</dc:format>
        <dc:type
           rdf:resource="http://purl.org/dc/dcmitype/StillImage" />
        <dc:title></dc:title>
      </cc:Work>
    </rdf:RDF>
  </metadata>
  <g
     inkscape:groupmode="layer"
     id="layer4"
     inkscape:label="Ebene 2"
     transform="translate(-2e-5,-844.14735)">
    <g
       id="g22369"
       transform="matrix(0.70710678,-0.70710678,0.70710678,0.70710678,-640.02316,351.35778)">
      <g
         id="g14189"
         style="display:inline;opacity:1"
         transform="matrix(0.88388348,0.88388348,0.88388348,-0.88388348,-1639.5933,271.21648)">
        <g
           clip-path="none"
           transform="translate(1370.2666,520.1143)"
           id="g14197">
          <path
             inkscape:connector-curvature="0"
             id="path14199"
             transform="matrix(0.8,0,0,-0.8,-388.86004,354.66978)"
             d="M 483.86328,235.12305 380.85352,338.32422 486.07422,443.33789 589.08203,340.13672 483.86328,235.12305 Z m 0.0684,4.79101 100.22266,100.03125 -98.37696,98.5586 -100.21093,-100.03711 98.36523,-98.55274 z"
             style="fill:#ffffff;fill-opacity:0.78431374;fill-rule:nonzero;stroke:none" />
        </g>
        <g
           transform="translate(1370.0283,523.9812)"
           id="g14201" />
        <g
           mask="none"
           style="fill:#000000;fill-opacity:0.475"
           transform="translate(1330.0558,563.9684)"
           id="g14205">
          <path
             style="fill:#ffffff;fill-opacity:0.44999999;fill-rule:nonzero;stroke:none"
             d="M 103.25 4.6914062 L 4.7988281 103.33203 L 54.958984 153.39648 L 153.41797 54.755859 L 103.25 4.6914062 z M 108.14844 26.300781 C 112.07349 26.357361 115.53125 28.910156 115.53125 28.910156 L 110.84375 33.605469 C 110.84547 33.606852 110.88086 33.630859 110.88086 33.630859 L 110.81836 33.630859 L 110.84375 33.605469 C 110.73071 33.514691 106.99629 30.547255 106.17383 34.785156 C 106.23138 38.504285 110.33594 37.923828 110.33594 37.923828 L 112.55859 37.681641 C 112.55859 37.681641 114.75297 43.554688 114.26172 43.554688 C 113.75422 43.554687 111.18036 44.867268 107.73633 44.605469 C 103.99881 44.933559 95.76461 37.591875 101.22461 29.984375 C 103.2693 27.131094 105.79341 26.266833 108.14844 26.300781 z M 123.83008 34.759766 C 124.8677 34.796863 125.8666 34.965625 126.63477 35.359375 C 129.37352 36.766875 136.0275 40.662501 131.75 50 C 127.46375 59.34375 115.47461 52.818359 115.47461 52.818359 L 120.11133 48.201172 C 120.11133 48.201172 120.96593 49.40266 122.59961 49.291016 C 123.9522 49.213256 126.93026 48.216074 127.22852 44.828125 C 126.22316 40.4379 120.37109 41.335937 120.37109 41.335938 L 120.37109 41.328125 L 118.26953 35.423828 C 118.26953 35.423828 120.46979 34.851345 122.78711 34.763672 C 123.13471 34.750521 123.4842 34.7474 123.83008 34.759766 z M 83.386719 51.525391 L 118.19531 63.091797 L 113.59961 67.681641 L 107.22656 66.369141 L 100.86133 72.746094 L 98.748047 66.324219 L 100.95117 63.939453 L 84.839844 57.847656 L 83.386719 51.525391 z M 87.460938 64.408203 L 94.212891 66.560547 L 99.169922 82.394531 L 94.302734 87.269531 L 87.460938 64.408203 z M 58.328125 76.953125 L 81.554688 100.18945 L 76.878906 104.87109 L 53.650391 81.642578 L 58.328125 76.953125 z M 85.871094 86.986328 L 90.271484 91.382812 L 83.996094 97.666016 L 79.591797 93.259766 L 85.871094 86.986328 z M 45.904297 95.851562 L 45.970703 101.88867 C 39.219454 102.80117 36.427031 105.45305 35.519531 111.68555 C 34.610781 117.9243 41.422969 125.25687 49.480469 122.92188 C 56.026309 119.82059 56.162109 113.89648 56.162109 113.89648 L 62.332031 107.72852 C 65.773281 117.66227 59.664687 124.15711 53.492188 128.25586 C 47.315931 132.36836 28.121094 127.91023 29.089844 112.14648 C 30.064844 96.365263 45.904297 95.851562 45.904297 95.851562 z M 55.992188 98.472656 L 60.320312 102.79492 L 48.78125 114.32617 L 44.453125 110.00781 L 55.992188 98.472656 z "
             transform="matrix(0.80000005,0,0,-0.80000005,-43.966437,122.71719)"
             id="path14207" />
        </g>
        <g
           transform="translate(1334.3455,604.4494)"
           id="g14209" />
        <g
           transform="translate(1347.592,602.7882)"
           id="g14213" />
        <g
           transform="translate(1358.3058,613.5792)"
           id="g14217" />
        <g
           transform="translate(1361.5319,616.8696)"
           id="g14221" />
        <g
           transform="translate(1352.7985,645.4658)"
           id="g14225" />
        <g
           transform="translate(1322.8665,605.1748)"
           id="g14229" />
        <g
           transform="translate(1374.7448,659.7809)"
           id="g14233" />
        <g
           transform="translate(1383.2268,653.6996)"
           id="g14237" />
        <g
           transform="translate(1366.5413,540.4235)"
           id="g14241">
          <path
             inkscape:connector-curvature="0"
             id="path14243"
             style="fill:#ffffff;fill-opacity:0.78431374;fill-rule:nonzero;stroke:none"
             d="m 0,0 -3.783,-3.783 -18.809,18.809 3.783,3.783 L 0,0 Z" />
        </g>
        <g
           transform="translate(1379.9587,553.878)"
           id="g14245">
          <path
             inkscape:connector-curvature="0"
             id="path14247"
             style="fill:#ffffff;fill-opacity:0.78431374;fill-rule:nonzero;stroke:none"
             d="M 0,0 -3.783,-3.775 -22.6,15.035 -18.82,18.811 0,0 Z" />
        </g>
        <g
           transform="translate(1365.5313,555.9052)"
           id="g14249">
          <path
             inkscape:connector-curvature="0"
             id="path14251"
             style="fill:#ffffff;fill-opacity:0.78431374;fill-rule:nonzero;stroke:none"
             d="M 0,0 -4.875,-4.876 -8.692,-1.049 -3.819,3.819 0,0 Z" />
        </g>
        <g
           transform="translate(1382.9238,557.2538)"
           id="g14253" />
        <g
           transform="translate(1375.2021,580.5601)"
           id="g14257" />
        <g
           transform="translate(1386.1495,598.7163)"
           id="g14261">
          <path
             sodipodi:nodetypes="ccccccc"
             inkscape:connector-curvature="0"
             id="path14263"
             style="fill:#ffffff;fill-opacity:0.78431374;fill-rule:nonzero;stroke:none"
             d="m 0,0 3.558,3.547 c 0,0 11.913354,-12.0002159 12.586318,-12.6617146 2.721149,-2.7326144 5.546096,-1.0213994 5.546096,-1.0213994 l 3.401743,-3.401121 c 0,0 -5.661005,-5.664005 -11.682157,0.249235 C 0.19784696,0.03206594 0,0 0,0" />
        </g>
        <g
           transform="translate(1398.705,612.9558)"
           id="g14265">
          <path
             sodipodi:nodetypes="ccccccc"
             inkscape:connector-curvature="0"
             id="path14267"
             style="fill:#ffffff;fill-opacity:0.78431374;fill-rule:nonzero;stroke:none"
             d="M 0.80537477,-1.0684583 -2.7525689,-4.5872306 c 0,0 0.5772541,-0.5692362 12.7536459,-12.6734034 2.99105,-3.346117 1.384638,-4.910539 1.384638,-4.910539 l 3.378194,-3.342402 c 0,0 5.235161,5.202319 -0.897049,11.430888 C 3.6472252,-3.9594104 0.81118063,-1.0449748 0.81118063,-1.0449748" />
        </g>
        <g
           transform="translate(1416.2587,620.2422)"
           id="g14269">
          <path
             sodipodi:nodetypes="ccccccccc"
             inkscape:connector-curvature="0"
             id="path14271"
             style="fill:#ffffff;fill-opacity:0.78431374;fill-rule:nonzero;stroke:none"
             d="m 0,0 3.771,3.772 c 0,0 -7.084,5.23 -11.45,-0.857 -4.37,-6.089 1.9921216,-11.3980686 5.194,-11.644 3.6863471,0.2459314 4.4871728,1.0865942 4.8871728,1.0865942 0.393,-0.005 -1.2606602,4.9337359 -1.2606602,4.9337359 l -1.85271067,-0.5006854 c 0,0 -3.74430943,-0.7482296 -3.36680193,2.41435531 C -2.7584511,2.2649551 0,0 0,0" />
        </g>
        <g
           transform="translate(1422.3467,614.1561)"
           id="g14273">
          <path
             sodipodi:nodetypes="cccccccc"
             inkscape:connector-curvature="0"
             id="path14275"
             style="fill:#ffffff;fill-opacity:0.78431374;fill-rule:nonzero;stroke:none"
             d="M -0.84852818,-0.35355341 -2.121,4.499 c 0,0 4.109,1.323 6.285,0.201 C 6.348,3.576 11.685,0.461 8.256,-7.014 4.83,-14.486 -4.767,-9.263 -4.767,-9.263 l 3.842,3.838 c 2.2608871,-0.9317668 4.5236289,-0.9317668 5.089,2.183 0.067,3.373 -4.80039614,2.88844659 -4.80039614,2.88844659" />
        </g>
      </g>
      <path
         inkscape:connector-curvature="0"
         id="path14223-4"
         style="display:inline;opacity:1;fill:#ffffff;fill-opacity:0.78431374;fill-rule:nonzero;stroke:none;enable-background:new"
         d="m 75.547571,1001.0025 6.889871,-0.01 7.689787,-14.7025 -3.251807,-6.2959 -11.327851,21.0044 z" />
      <path
         sodipodi:nodetypes="cccccccccc"
         inkscape:connector-curvature="0"
         id="path14227-8"
         style="display:inline;opacity:1;fill:#ffffff;fill-opacity:0.78431374;fill-rule:nonzero;stroke:none;enable-background:new"
         d="m 93.103972,968.0075 -3.442726,5.49864 7.08521,15.83212 -3.24562,-0.004 -3.045863,6.03515 9.010303,-0.009 3.577084,5.43499 6.49566,0 -16.434048,-32.79297 z" />
    </g>
  </g>
</svg>
